<?xml version="1.0" encoding="UTF-8"?>
<svg version="1.1" xmlns="http://www.w3.org/2000/svg" width="512" height="512">
<path d="M0 0 C0.74386963 0.00563965 1.48773926 0.0112793 2.25415039 0.01708984 C15.39820314 0.30622179 25.80680267 5.83570866 34.9543457 15.17089844 C41.24802779 22.25506189 46.06901732 30.68546993 51.1875 38.625 C53.10768351 41.57800832 55.03147052 44.52864916 56.95530701 47.47927856 C58.25818798 49.47831946 59.55974853 51.47822156 60.86000061 53.47897339 C65.0985344 59.99639213 69.38513597 66.47903789 73.71875 72.93359375 C74.27207504 73.75833694 74.82540009 74.58308014 75.39549255 75.43281555 C77.50097271 78.56893386 79.60775074 81.70413534 81.72195435 84.8343811 C83.15333341 86.95459613 84.57904764 89.07852476 86.00390625 91.203125 C86.6222937 92.11287331 86.6222937 92.11287331 87.25317383 93.04100037 C94.73560888 104.23054115 97.87316675 114.72308452 96.625 128.3125 C93.13039222 145.44799157 83.09916328 155.31661261 70.75561523 166.72265625 C68.89125529 168.45406847 67.05613057 170.21255716 65.22265625 171.9765625 C64.64572525 172.49449371 64.06879425 173.01242493 63.47438049 173.54605103 C61.3568514 175.60837189 59.70843645 177.32515266 59.45249939 180.35379028 C59.82055307 183.75560924 60.60550449 187.03186371 62.12109375 190.1015625 C62.42700439 190.72571045 62.73291504 191.3498584 63.0480957 191.99291992 C63.38284912 192.63463135 63.71760254 193.27634277 64.0625 193.9375 C64.41594482 194.62626221 64.76938965 195.31502441 65.13354492 196.0246582 C83.91497824 231.56867371 122.62239954 270.52171792 160.953125 283.43359375 C165.16441611 283.29471075 165.61905337 282.84541825 168.4921875 280.0078125 C169.84899171 278.5029294 171.18405229 276.97823763 172.5 275.4375 C173.91740096 273.85886502 175.33536486 272.28073528 176.75390625 270.703125 C177.42566895 269.94064453 178.09743164 269.17816406 178.78955078 268.39257812 C188.83684756 257.00617635 200.68319948 247.06425421 216.41015625 246.07421875 C217.83582946 246.04388528 219.26163455 246.01928583 220.6875 246 C221.37521484 245.97099609 222.06292969 245.94199219 222.77148438 245.91210938 C238.04480773 245.73078225 249.79634725 255.2112543 261.875 263.375 C263.80663636 264.66638581 265.73902097 265.95665304 267.67211914 267.24584961 C272.66860701 270.58336459 277.65329089 273.93807244 282.63482666 277.29785156 C286.54818225 279.93449995 290.46804617 282.56137862 294.38796997 285.18824768 C298.94921853 288.24593403 303.50667195 291.30924436 308.0625 294.375 C308.92097534 294.9526712 309.77945068 295.53034241 310.66394043 296.1255188 C313.08900167 297.7593554 315.51175361 299.39654986 317.93359375 301.03515625 C318.64307663 301.51307617 319.35255951 301.99099609 320.08354187 302.48339844 C331.39671652 310.15686973 338.87723101 319.15655791 342.2109375 332.69140625 C344.41656949 346.65347288 341.7445785 358.86431772 333.625 370.3125 C326.23346255 379.29413351 317.74669778 387.41048354 309.54174805 395.63598633 C307.18919886 397.99829409 304.84755268 400.3710777 302.50585938 402.74414062 C300.98503591 404.2714917 299.46357282 405.79820621 297.94140625 407.32421875 C297.25567032 408.02230148 296.56993439 408.72038422 295.86341858 409.43962097 C282.56626539 422.6772947 267.06982668 430.53314112 248.13916016 430.83203125 C247.0413623 430.82558594 245.94356445 430.81914063 244.8125 430.8125 C243.64251465 430.80605469 242.4725293 430.79960938 241.26708984 430.79296875 C179.88120981 429.5298506 120.87660509 383.00483007 76.26806641 344.71728516 C74.60629563 343.29650818 72.93516022 341.88747247 71.26171875 340.48046875 C56.66093962 328.16490217 43.07792771 314.85808058 29.5625 301.375 C28.92585419 300.74103302 28.28920837 300.10706604 27.63327026 299.45388794 C21.0745703 292.91612034 14.61983635 286.37810947 8.625 279.3125 C7.00532183 277.53679779 5.38088282 275.76541693 3.75 274 C-1.1707178 268.59758543 -5.80292553 263.01081141 -10.375 257.3125 C-11.28725289 256.19229484 -12.20003803 255.07252295 -13.11328125 253.953125 C-29.43127586 233.86669864 -44.4984358 212.77788483 -57.375 190.3125 C-57.83374512 189.51924316 -58.29249023 188.72598633 -58.76513672 187.90869141 C-77.45986687 155.38244973 -95.20298326 115.13646962 -85.75 76.8125 C-79.5220398 57.82481645 -64.50766396 45.18478451 -50.78320312 31.37060547 C-48.92592053 29.49670508 -47.07402782 27.61744738 -45.22753906 25.73291016 C-42.5310998 22.98143175 -39.81832512 20.24702133 -37.1015625 17.515625 C-36.28974518 16.68113831 -35.47792786 15.84665161 -34.64151001 14.98687744 C-24.71395819 5.09509671 -14.05095404 -0.1124719 0 0 Z " fill="#2E86FF" transform="translate(87.375,81.6875)"/>
<path d="M0 0 C1.63328247 -0.00942627 1.63328247 -0.00942627 3.29956055 -0.01904297 C5.04039917 0.00198486 5.04039917 0.00198486 6.81640625 0.0234375 C8.02272705 0.03358887 9.22904785 0.04374023 10.47192383 0.05419922 C57.06261147 0.84652652 103.03350595 18.44947311 139.37890625 47.3984375 C140.84457031 48.55666016 140.84457031 48.55666016 142.33984375 49.73828125 C157.28238536 61.82272564 171.23647942 75.7174478 182.37890625 91.3984375 C183.06678223 92.34444824 183.06678223 92.34444824 183.76855469 93.30957031 C210.16174652 129.86084408 225.26753597 173.72603807 225.81640625 218.8359375 C225.85000244 220.57012939 225.85000244 220.57012939 225.88427734 222.33935547 C225.86709618 228.46036987 225.80749467 232.74274198 221.37890625 237.3984375 C216.15630768 241.45474148 210.72550483 241.17241294 204.37890625 240.3984375 C199.86556361 238.26053835 197.43605299 235.9458145 195.37890625 231.3984375 C194.53275683 227.37028956 194.25999404 223.4458434 194.13989258 219.33642578 C192.58486754 170.39188368 172.35713204 124.95566379 138.71289062 89.79541016 C137.57531952 88.60412504 136.45212401 87.39913986 135.33203125 86.19140625 C103.7054024 53.01047727 55.1973504 33.57279752 9.94140625 31.7734375 C9.2033374 31.75756592 8.46526855 31.74169434 7.70483398 31.7253418 C1.13217684 31.56070587 -5.37183836 31.26484091 -10.55859375 26.9609375 C-15.25795734 21.12233426 -15.40755616 16.73875332 -14.62109375 9.3984375 C-11.5304964 2.8738431 -7.17860425 0.02517336 0 0 Z " fill="#DFF1FF" transform="translate(286.62109375,-0.3984375)"/>
<path d="M0 0 C1.61032104 0.01522705 1.61032104 0.01522705 3.25317383 0.03076172 C25.69677111 0.46201577 47.70785509 6.48447505 67.8125 16.375 C68.44349609 16.68163574 69.07449219 16.98827148 69.72460938 17.30419922 C82.60336973 23.63527178 94.10152933 31.50159236 104.59375 41.3125 C106.56987093 43.14945749 108.60204621 44.85311165 110.6875 46.5625 C136.7734001 69.44025513 153.83704871 105.4925879 158.8125 139.375 C158.99296875 140.57898438 159.1734375 141.78296875 159.359375 143.0234375 C160.01965455 148.50238081 160.07426934 153.98726865 160.125 159.5 C160.15400391 160.55832031 160.18300781 161.61664063 160.21289062 162.70703125 C160.2620952 168.74026958 160.14090998 172.75901252 155.8125 177.375 C150.58990143 181.43130398 145.15909858 181.14897544 138.8125 180.375 C134.29915736 178.23710085 131.86964674 175.922377 129.8125 171.375 C128.84999071 166.81912267 128.57510045 162.26814235 128.26831055 157.63427734 C125.66790263 120.40186509 108.9498421 86.93912729 80.8125 62.375 C59.73687891 44.80939392 32.73009933 34.00183893 5.40625 31.9609375 C4.42640137 31.88391602 3.44655273 31.80689453 2.43701172 31.72753906 C0.47637155 31.57880745 -1.48566383 31.44721208 -3.44873047 31.33496094 C-9.07243968 30.92339728 -12.81648418 30.25884378 -17.1875 26.375 C-21.24380398 21.15240143 -20.96147544 15.72159858 -20.1875 9.375 C-15.81053068 0.13473144 -9.2510693 -0.12555074 0 0 Z " fill="#DCF0FF" transform="translate(292.1875,59.625)"/>
<path d="M0 0 C0.92941406 0.00684814 1.85882813 0.01369629 2.81640625 0.02075195 C11.67910588 0.22307247 19.81531177 1.78477847 28.25 4.4375 C29.36503906 4.788125 30.48007812 5.13875 31.62890625 5.5 C58.80831245 15.10450182 79.91003162 34.99047391 92.5 60.75 C98.18340115 73.6365976 101.41527541 86.86282912 101.5625 100.9375 C101.60600586 102.32388672 101.60600586 102.32388672 101.65039062 103.73828125 C101.70372894 109.47420197 101.26715144 113.0028933 97.25 117.4375 C92.02740143 121.49380398 86.59659858 121.21147544 80.25 120.4375 C75.63789017 118.25281639 73.40529188 116.00648388 71.25 111.4375 C70.56912152 107.81486277 70.23743018 104.16624565 69.875 100.5 C67.51783515 80.0765649 59.59396097 61.83157478 43.625 48.25 C29.45896676 37.58715891 14.05689551 32.39839679 -3.58520508 31.29541016 C-8.63866854 30.89832387 -11.76143135 29.8110911 -15.75 26.4375 C-19.80630398 21.21490143 -19.52397544 15.78409858 -18.75 9.4375 C-14.67308483 0.83067909 -8.72324647 -0.09834107 0 0 Z " fill="#D0EBFF" transform="translate(290.75,119.5625)"/>
<path d="M0 0 C14.2107518 5.07168174 22.68667484 14.07582271 29.1796875 27.3515625 C31.30532718 32.26061309 31.61812239 36.67080015 31.69140625 41.99609375 C31.72041016 42.69089844 31.74941406 43.38570312 31.77929688 44.1015625 C31.84294616 49.30121966 30.74296567 52.18967167 27.37890625 56.12109375 C22.15630768 60.17739773 16.72550483 59.89506919 10.37890625 59.12109375 C5.73383028 56.92079461 3.70991327 54.61161681 1.37890625 50.12109375 C0.57860475 46.85521691 -0.00177026 43.58869981 -0.58203125 40.27734375 C-1.88520972 36.31881667 -3.33050888 34.66748641 -6.62109375 32.12109375 C-10.2286498 30.85341697 -10.2286498 30.85341697 -14.12109375 30.12109375 C-21.33982507 28.61959763 -24.55294054 26.22332356 -28.62109375 20.12109375 C-29.31033253 14.56711152 -29.34530885 9.6499923 -26.93359375 4.55859375 C-19.76193479 -3.00072245 -9.52585171 -2.31209993 0 0 Z " fill="#BDE3FF" transform="translate(300.62109375,180.87890625)"/>
</svg>
