<?xml version="1.0" encoding="UTF-8"?>
<svg version="1.1" xmlns="http://www.w3.org/2000/svg" width="512" height="512">
<path d="M0 0 C1.58925224 -0.00374027 3.17850264 -0.0083433 4.76775014 -0.01373065 C9.11948553 -0.02592963 13.47114386 -0.02570384 17.82289243 -0.02334189 C22.52246353 -0.02293294 27.22201018 -0.03398046 31.92156982 -0.04345703 C41.12363436 -0.06005144 50.32567327 -0.06556589 59.52775152 -0.06668179 C67.01072655 -0.06763309 74.49369314 -0.07174748 81.9766655 -0.07808304 C103.20779746 -0.0956919 124.43890923 -0.10492257 145.67004855 -0.10342209 C147.38597477 -0.10330222 147.38597477 -0.10330222 149.13656616 -0.10317993 C150.85459586 -0.10305729 150.85459586 -0.10305729 152.60733323 -0.10293217 C171.16205994 -0.10211957 189.71670541 -0.12125155 208.27140863 -0.14945666 C227.33847101 -0.1782111 246.4054938 -0.19199552 265.47257841 -0.19026911 C276.17112177 -0.18960605 286.86958 -0.19506141 297.56810379 -0.21662521 C306.67851732 -0.23487078 315.78880711 -0.23915672 324.89923103 -0.22560637 C329.54314955 -0.2190935 334.18683092 -0.21889843 338.83072662 -0.23631287 C343.09097049 -0.25212357 347.35079075 -0.24909912 351.61102478 -0.2317446 C353.14331592 -0.22869218 354.67563931 -0.23223996 356.20789237 -0.24346475 C375.64402613 -0.37629407 393.66983665 5.07158741 408.36459351 18.26742554 C409.18572632 18.99574585 410.00685913 19.72406616 410.85287476 20.47445679 C423.41979273 32.27858763 432.57274895 49.15897956 433.55220103 66.61006474 C433.62831794 70.70888543 433.64118139 74.80351412 433.63201904 78.90283203 C433.63575932 80.49208427 433.64036234 82.08133467 433.64574969 83.67058218 C433.65794867 88.02231756 433.65772288 92.37397589 433.65536094 96.72572446 C433.65495198 101.42529556 433.66599951 106.12484221 433.67547607 110.82440186 C433.69207048 120.02646639 433.69758493 129.2285053 433.69870083 138.43058355 C433.69965213 145.91355858 433.70376652 153.39652517 433.71010208 160.87949753 C433.72771094 182.11062949 433.73694161 203.34174126 433.73544113 224.57288058 C433.73532126 226.2888068 433.73532126 226.2888068 433.73519897 228.03939819 C433.73511721 229.18475133 433.73503545 230.33010446 433.73495121 231.51016526 C433.73413862 250.06489197 433.75327059 268.61953744 433.78147571 287.17424066 C433.81023014 306.24130304 433.82401456 325.30832583 433.82228816 344.37541044 C433.8216251 355.0739538 433.82708045 365.77241203 433.84864426 376.47093582 C433.86688982 385.58134935 433.87117576 394.69163914 433.85762541 403.80206306 C433.85111254 408.44598158 433.85091747 413.08966295 433.86833191 417.73355865 C433.88414262 421.99380252 433.88111816 426.25362278 433.86376365 430.51385681 C433.86071122 432.04614795 433.864259 433.57847134 433.8754838 435.1107244 C434.00831311 454.54685816 428.56043163 472.57266868 415.36459351 487.26742554 C414.63627319 488.08855835 413.90795288 488.90969116 413.15756226 489.75570679 C401.35343141 502.32262476 384.47303948 511.47558098 367.0219543 512.45503306 C362.92313362 512.53114998 358.82850492 512.54401342 354.72918701 512.53485107 C353.13993477 512.53859135 351.55068437 512.54319437 349.96143687 512.54858172 C345.60970148 512.5607807 341.25804315 512.56055491 336.90629458 512.55819297 C332.20672348 512.55778401 327.50717683 512.56883154 322.80761719 512.57830811 C313.60555265 512.59490252 304.40351374 512.60041696 295.20143549 512.60153286 C287.71846047 512.60248416 280.23549387 512.60659855 272.75252151 512.61293411 C251.52138955 512.63054297 230.29027778 512.63977364 209.05913846 512.63827316 C207.34321224 512.6381533 207.34321224 512.6381533 205.59262085 512.63803101 C203.87459115 512.63790836 203.87459115 512.63790836 202.12185378 512.63778324 C183.56712707 512.63697065 165.0124816 512.65610263 146.45777838 512.68430774 C127.390716 512.71306217 108.32369321 512.7268466 89.25660861 512.72512019 C78.55806524 512.72445713 67.85960702 512.72991248 57.16108322 512.75147629 C48.05066969 512.76972185 38.9403799 512.77400779 29.82995598 512.76045744 C25.18603746 512.75394457 20.54235609 512.75374951 15.89846039 512.77116394 C11.63821652 512.78697465 7.37839626 512.78395019 3.11816223 512.76659568 C1.58587109 512.76354325 0.0535477 512.76709103 -1.47870536 512.77831583 C-20.91483912 512.91114514 -38.94064964 507.46326366 -53.63540649 494.26742554 C-54.45653931 493.53910522 -55.27767212 492.81078491 -56.12368774 492.06039429 C-68.69060572 480.25626344 -77.84356194 463.37587151 -78.82301402 445.92478633 C-78.89913093 441.82596565 -78.91199438 437.73133695 -78.90283203 433.63201904 C-78.90657231 432.04276681 -78.91117533 430.45351641 -78.91656268 428.8642689 C-78.92876166 424.51253351 -78.92853587 420.16087519 -78.92617393 415.80912662 C-78.92576497 411.10955552 -78.93681249 406.41000886 -78.94628906 401.71044922 C-78.96288347 392.50838468 -78.96839792 383.30634577 -78.96951382 374.10426752 C-78.97046512 366.6212925 -78.97457951 359.1383259 -78.98091507 351.65535355 C-78.99852393 330.42422158 -79.0077546 309.19310981 -79.00625412 287.96197049 C-79.00617421 286.81801968 -79.0060943 285.67406887 -79.00601196 284.49545288 C-79.0059302 283.35009975 -79.00584844 282.20474662 -79.0057642 281.02468581 C-79.0049516 262.4699591 -79.02408358 243.91531363 -79.0522887 225.36061041 C-79.08104313 206.29354803 -79.09482755 187.22652524 -79.09310114 168.15944064 C-79.09243808 157.46089727 -79.09789344 146.76243905 -79.11945724 136.06391525 C-79.13770281 126.95350173 -79.14198875 117.84321193 -79.1284384 108.73278801 C-79.12192553 104.08886949 -79.12173046 99.44518812 -79.1391449 94.80129242 C-79.15495561 90.54104856 -79.15193115 86.2812283 -79.13457663 82.02099426 C-79.13152421 80.48870312 -79.13507199 78.95637973 -79.14629678 77.42412667 C-79.2791261 57.98799291 -73.83124462 39.96218239 -60.63540649 25.26742554 C-59.90708618 24.44629272 -59.17876587 23.62515991 -58.42837524 22.77914429 C-42.51980493 5.8425565 -22.55010792 -0.05040155 0 0 Z " fill="#178FEB" transform="translate(78.63540649414063,-0.267425537109375)"/>
<path d="M0 0 C0.8681461 -0.00583219 1.73629221 -0.01166439 2.63074577 -0.01767331 C4.05456241 -0.01200433 4.05456241 -0.01200433 5.50714302 -0.00622082 C6.51904831 -0.01004636 7.5309536 -0.01387191 8.57352269 -0.01781338 C11.97439164 -0.02815678 15.37509217 -0.02414865 18.77597237 -0.02018261 C21.21014755 -0.02452835 23.64432135 -0.02971104 26.07849312 -0.03567028 C32.01027773 -0.04769229 37.94202037 -0.0502098 43.87381254 -0.04787002 C48.69537222 -0.04608759 53.51691815 -0.04783489 58.33847618 -0.05209446 C59.02449147 -0.05268965 59.71050676 -0.05328484 60.41731039 -0.05389806 C61.81092587 -0.05510981 63.20454135 -0.05632394 64.59815682 -0.05754044 C77.67095544 -0.06841969 90.74372827 -0.06625177 103.81652834 -0.06015559 C115.77532712 -0.05498708 127.73404443 -0.06623942 139.69282709 -0.08525381 C151.97170516 -0.10462748 164.25054468 -0.11288898 176.52943814 -0.10913056 C183.42323685 -0.10721767 190.31696623 -0.10971454 197.21075249 -0.1238451 C203.69335209 -0.13699828 210.17582935 -0.13450522 216.6584301 -0.12143421 C219.0392735 -0.11906285 221.42012829 -0.12182304 223.80095863 -0.13005733 C227.04810035 -0.14047897 230.29468941 -0.13246055 233.54181099 -0.11974621 C234.48656064 -0.12712049 235.43131029 -0.13449478 236.40468872 -0.14209253 C241.57500543 -0.09942966 245.18591255 0.35254406 249.65146065 3.25447559 C255.50916239 9.58712612 254.92934623 15.59629673 255.0015583 23.85872364 C255.01805492 25.23877875 255.04526219 26.61875066 255.08358955 27.99837208 C255.46199596 41.71478171 255.46199596 41.71478171 251.31796455 47.74983692 C245.90999017 52.63254219 240.4405106 52.6860196 233.55526924 52.64215565 C232.5416551 52.64754119 231.52804096 52.65292672 230.48371124 52.65847546 C227.0889832 52.6727772 223.69464387 52.6656457 220.29989815 52.65852833 C217.86542637 52.66423067 215.43095726 52.6711944 212.99649239 52.67932606 C207.07164845 52.69542105 201.14690245 52.69735536 195.22204828 52.69211315 C190.40625146 52.68806959 185.59048596 52.68951721 180.77469063 52.69486141 C180.08894632 52.69560983 179.40320201 52.69635826 178.69667757 52.69712936 C177.30354515 52.69866085 175.91041274 52.7001992 174.51728034 52.70174433 C161.45781357 52.71546701 148.39840673 52.71003304 135.33894134 52.69855911 C123.39317571 52.68862425 111.44756493 52.70157211 99.50182319 52.7254933 C87.23191349 52.74987833 74.96207593 52.75949382 62.69214249 52.75284058 C55.80506194 52.74934737 48.91810051 52.75158721 42.03103828 52.76909161 C35.55658417 52.78534344 29.0823532 52.78064127 22.60790443 52.76178646 C20.2302856 52.75809171 17.85264496 52.76123469 15.47504616 52.77167225 C12.23223722 52.78482247 8.99041801 52.77338674 5.74765205 52.75568104 C4.33257394 52.77008855 4.33257394 52.77008855 2.88890839 52.78478712 C-2.69197518 52.72198395 -5.93265348 52.00418588 -10.34853935 48.25447559 C-13.65078222 44.22145861 -13.81588365 40.35248586 -13.81728935 35.32088184 C-13.82490288 34.56532505 -13.8325164 33.80976826 -13.84036064 33.0313158 C-13.85113077 31.43866232 -13.85402731 29.8459384 -13.84951591 28.25325489 C-13.8485435 25.82732435 -13.89019392 23.40455937 -13.93447685 20.97908497 C-13.93968463 19.42635714 -13.94237203 17.8736184 -13.94228935 16.32088184 C-13.95868462 15.60195255 -13.97507988 14.88302326 -13.99197197 14.14230824 C-13.94023296 10.33845534 -13.38895495 7.8242405 -11.06142998 4.8753252 C-7.47493582 1.41051105 -4.98624408 0.00577344 0 0 Z " fill="#FEFEFE" transform="translate(171.348539352417,229.7455244064331)"/>
<path d="M0 0 C0.8681461 -0.00583219 1.73629221 -0.01166439 2.63074577 -0.01767331 C4.05456241 -0.01200433 4.05456241 -0.01200433 5.50714302 -0.00622082 C6.51904831 -0.01004636 7.5309536 -0.01387191 8.57352269 -0.01781338 C11.97439164 -0.02815678 15.37509217 -0.02414865 18.77597237 -0.02018261 C21.21014755 -0.02452835 23.64432135 -0.02971104 26.07849312 -0.03567028 C32.01027773 -0.04769229 37.94202037 -0.0502098 43.87381254 -0.04787002 C48.69537222 -0.04608759 53.51691815 -0.04783489 58.33847618 -0.05209446 C59.02449147 -0.05268965 59.71050676 -0.05328484 60.41731039 -0.05389806 C61.81092587 -0.05510981 63.20454135 -0.05632394 64.59815682 -0.05754044 C77.67095544 -0.06841969 90.74372827 -0.06625177 103.81652834 -0.06015559 C115.77532712 -0.05498708 127.73404443 -0.06623942 139.69282709 -0.08525381 C151.97170516 -0.10462748 164.25054468 -0.11288898 176.52943814 -0.10913056 C183.42323685 -0.10721767 190.31696623 -0.10971454 197.21075249 -0.1238451 C203.69335209 -0.13699828 210.17582935 -0.13450522 216.6584301 -0.12143421 C219.0392735 -0.11906285 221.42012829 -0.12182304 223.80095863 -0.13005733 C227.04810035 -0.14047897 230.29468941 -0.13246055 233.54181099 -0.11974621 C234.48656064 -0.12712049 235.43131029 -0.13449478 236.40468872 -0.14209253 C241.57500543 -0.09942966 245.18591255 0.35254406 249.65146065 3.25447559 C255.50916239 9.58712612 254.92934623 15.59629673 255.0015583 23.85872364 C255.01805492 25.23877875 255.04526219 26.61875066 255.08358955 27.99837208 C255.46199596 41.71478171 255.46199596 41.71478171 251.31796455 47.74983692 C245.92212727 52.62158395 240.47011535 52.68613668 233.59996223 52.64215565 C232.59113721 52.64754119 231.58231219 52.65292672 230.54291672 52.65847546 C227.16434159 52.67277675 223.78615705 52.66564579 220.40756416 52.65852833 C217.98456698 52.66423073 215.56157248 52.67119448 213.13858223 52.67932606 C207.24147663 52.69542124 201.34446943 52.69735522 195.44735355 52.69211315 C190.6534951 52.68806926 185.85966811 52.68951761 181.06581116 52.69486141 C180.38313093 52.69560983 179.7004507 52.69635826 178.9970832 52.69712936 C177.61015351 52.69866086 176.22322384 52.70019921 174.83629417 52.70174433 C161.83450106 52.71546737 148.83276815 52.71003303 135.83097642 52.69855911 C123.94085154 52.68862658 112.05088227 52.70156802 100.16078139 52.7254933 C87.9462374 52.7498859 75.73176588 52.75949181 63.51719803 52.75284058 C56.66194345 52.74934875 49.80680856 52.75157799 42.95157242 52.76909161 C36.50584204 52.78535504 30.06033572 52.78062941 23.61461067 52.76178646 C21.24869977 52.75809452 18.88276694 52.76122657 16.51687622 52.77167225 C13.28755385 52.78484176 10.05922229 52.77336946 6.8299427 52.75568104 C5.89336108 52.76528604 4.95677946 52.77489105 3.99181658 52.78478712 C-1.96700152 52.71761601 -5.45773799 51.7130952 -10.34853935 48.25447559 C-13.71237977 44.28078846 -13.81588825 40.33600537 -13.81728935 35.32088184 C-13.82490288 34.56532505 -13.8325164 33.80976826 -13.84036064 33.0313158 C-13.85113077 31.43866232 -13.85402731 29.8459384 -13.84951591 28.25325489 C-13.8485435 25.82732435 -13.89019392 23.40455937 -13.93447685 20.97908497 C-13.93968463 19.42635714 -13.94237203 17.8736184 -13.94228935 16.32088184 C-13.95868462 15.60195255 -13.97507988 14.88302326 -13.99197197 14.14230824 C-13.94023296 10.33845534 -13.38895495 7.8242405 -11.06142998 4.8753252 C-7.47493582 1.41051105 -4.98624408 0.00577344 0 0 Z " fill="#FEFEFE" transform="translate(171.348539352417,330.7455244064331)"/>
<path d="M0 0 C1.00882502 -0.00538554 2.01765004 -0.01077108 3.05704552 -0.01631981 C6.43562065 -0.0306211 9.81380518 -0.02349014 13.19239807 -0.01637268 C15.61539526 -0.02207508 18.03838975 -0.02903884 20.46138 -0.03717041 C26.3584856 -0.0532656 32.2554928 -0.05519958 38.15260869 -0.04995751 C42.94646714 -0.04591361 47.74029413 -0.04736197 52.53415108 -0.05270576 C53.2168313 -0.05345419 53.89951153 -0.05420261 54.60287904 -0.05497371 C55.98980872 -0.05650521 57.3767384 -0.05804356 58.76366807 -0.05958868 C71.76546117 -0.07331172 84.76719409 -0.06787739 97.76898582 -0.05640347 C109.6591107 -0.04647094 121.54907996 -0.05941238 133.43918084 -0.08333766 C145.65372483 -0.10773025 157.86819635 -0.11733617 170.08276421 -0.11068493 C176.93801878 -0.1071931 183.79315368 -0.10942234 190.64838982 -0.12693596 C197.0941202 -0.14319939 203.53962652 -0.13847377 209.98535156 -0.11963081 C212.35126246 -0.11593887 214.71719529 -0.11907092 217.08308601 -0.1295166 C220.31240838 -0.14268611 223.54073995 -0.13121381 226.77001953 -0.11352539 C227.70660115 -0.1231304 228.64318277 -0.1327354 229.60814565 -0.14263147 C235.57076986 -0.07541746 239.06290081 0.91117764 243.94850159 4.38768005 C248.99694717 10.30626422 248.5969848 16.75582196 248.5249176 24.29368591 C248.51104921 26.31822806 248.54517765 28.33813622 248.58326721 30.36228943 C248.57335444 37.00715389 248.41312759 42.28723504 244.6084137 47.87425232 C239.22677614 52.78096966 233.7267384 52.81915517 226.85231018 52.77536011 C225.83869604 52.78074565 224.8250819 52.78613118 223.78075218 52.79167992 C220.38602414 52.80598166 216.99168481 52.79885016 213.59693909 52.79173279 C211.16246731 52.79743513 208.7279982 52.80439886 206.29353333 52.81253052 C200.36868939 52.82862551 194.44394339 52.83055982 188.51908922 52.82531761 C183.7032924 52.82127405 178.8875269 52.82272167 174.07173157 52.82806587 C173.38598726 52.82881429 172.70024295 52.82956272 171.9937185 52.83033382 C170.60058609 52.83186531 169.20745368 52.83340366 167.81432128 52.83494879 C154.75485451 52.84867147 141.69544767 52.8432375 128.63598228 52.83176357 C116.69021665 52.82182872 104.74460587 52.83477657 92.79886413 52.85869776 C80.52895443 52.88308279 68.25911687 52.89269828 55.98918343 52.88604504 C49.10210288 52.88255183 42.21514145 52.88479167 35.32807922 52.90229607 C28.85362511 52.9185479 22.37939414 52.91384573 15.90494537 52.89499092 C13.52732654 52.89129617 11.1496859 52.89443915 8.7720871 52.90487671 C5.52927816 52.91802693 2.28745895 52.9065912 -0.95530701 52.8888855 C-2.37038512 52.90329301 -2.37038512 52.90329301 -3.81405067 52.91799158 C-9.39505445 52.85518706 -12.63534523 52.13716594 -17.05149841 48.38768005 C-20.37101356 44.34233619 -20.5055548 40.46614622 -20.48509216 35.41893005 C-20.49295494 34.28203735 -20.49295494 34.28203735 -20.50097656 33.12217712 C-20.50737843 31.52530641 -20.50608356 29.92838842 -20.49754333 28.33152771 C-20.48902387 25.89496138 -20.51783113 23.46073438 -20.54954529 21.0243988 C-20.55115735 19.46840992 -20.55057967 17.91241691 -20.54759216 16.35643005 C-20.55882614 15.63233948 -20.57006012 14.9082489 -20.58163452 14.16221619 C-20.53448597 10.72338352 -20.15167486 8.55769793 -18.39549255 5.57713318 C-12.69590277 0.25332096 -7.41898377 -0.04749451 0 0 Z " fill="#FEFEFE" transform="translate(178.05149841308594,128.61231994628906)"/>
<path d="M0 0 C6.96478437 4.66788739 10.39367819 10.18103458 13 18 C13.71994934 26.06343264 11.47452462 33.12324476 7.125 39.9375 C1.14739132 45.73929666 -5.08975712 48.2746944 -13.375 48.375 C-21.35248694 48.22088946 -25.97847931 46.05034728 -31.8125 40.75 C-37.95413033 34.08955615 -38.62938753 27.32238457 -38.41015625 18.41015625 C-37.60461984 11.71269636 -34.52900374 7.17779021 -29.6875 2.625 C-20.80845925 -4.27878978 -10.03967394 -5.01983697 0 0 Z " fill="#FCFDFE" transform="translate(125,334)"/>
<path d="M0 0 C6.54053804 4.368976 9.55022548 9.65067643 12 17 C12.71862436 25.04859278 10.4380314 31.99466269 6.25 38.875 C-1.13650156 45.85114037 -7.76424907 47.38504755 -17.7421875 47.2734375 C-24.87618416 46.6746608 -29.75256591 43.06842167 -34.5234375 37.89453125 C-39.29150089 31.77677796 -39.6598829 25.07959238 -39.47265625 17.4765625 C-38.4767333 10.15117882 -34.68383731 5.04706985 -29 0.5 C-19.63091705 -5.75784031 -9.60315326 -5.74761217 0 0 Z " fill="#FCFDFE" transform="translate(126,234)"/>
<path d="M0 0 C5.9981944 2.72894951 9.67697941 6.52381077 12.99609375 12.1640625 C13.36863281 12.75832031 13.74117187 13.35257813 14.125 13.96484375 C16.48109535 19.91319209 15.85929367 28.08464696 14.15625 34.16015625 C11.05741487 41.01515518 6.37127324 45.02475572 -0.3046875 48.2890625 C-6.7517089 50.37897971 -14.58637976 50.337443 -20.99609375 48.13671875 C-27.82006663 44.39286737 -31.58232315 39.0072287 -35.00390625 32.1640625 C-35.80850185 23.44591267 -36.17898937 15.65185914 -30.9296875 8.22265625 C-22.53543096 -0.75051453 -11.80063874 -3.28392287 0 0 Z " fill="#FDFEFE" transform="translate(122.00390625,130.8359375)"/>
</svg>
