<svg xmlns="http://www.w3.org/2000/svg" viewBox="-1 -33 95 189" xmlns:v="https://vecta.io/nano"><path d="M65.3 14.8l-5.1-2.1c5.6-4.2 9.3-11 9.3-18.6C69.5-18.6 59.1-29 46.3-29S23.1-18.6 23.1-5.8c0 7.6 3.7 14.3 9.3 18.6-5.2 1.7-10 4.4-14.3 7.9C10.3 27.1 4.9 36 2.8 45.9c-.6 3.1.1 6.2 2.1 8.7 2 2.4 4.9 3.8 8 3.8h42a3.37 3.37 0 0 0 3.4-3.4 3.37 3.37 0 0 0-3.4-3.4h-42a3.29 3.29 0 0 1-2.7-1.3c-.7-.8-.9-1.9-.7-3C13 30.2 28 17.8 45.4 17.4h1.8c5.3.1 10.4 1.3 15.2 3.6 1.7.8 3.7.1 4.5-1.6s.1-3.7-1.6-4.6zm-18.2-4.2h-1.6C36.8 10.2 29.9 3 29.9-5.8c0-9 7.3-16.4 16.4-16.4s16.4 7.3 16.4 16.4c0 8.8-6.9 15.9-15.6 16.4zm39.4 28.1h-9.4v-9.4a3.4 3.4 0 1 0-6.8 0v9.4h-9.4a3.37 3.37 0 0 0-3.4 3.4 3.37 3.37 0 0 0 3.4 3.4h9.4V55a3.4 3.4 0 1 0 6.8 0v-9.4h9.4a3.37 3.37 0 0 0 3.4-3.4c0-1.9-1.5-3.5-3.4-3.5z" fill="#0d7be5"/><path d="M65.3 108.6l-5.1-2.1c5.6-4.2 9.3-11 9.3-18.6 0-12.8-10.4-23.2-23.2-23.2S23.1 75.2 23.1 88c0 7.6 3.7 14.3 9.3 18.6-5.2 1.7-10 4.4-14.3 7.9-7.8 6.4-13.2 15.4-15.3 25.2-.6 3.1.1 6.2 2.1 8.7 2 2.4 4.9 3.8 8 3.8h42a3.4 3.4 0 1 0 0-6.8h-42a3.29 3.29 0 0 1-2.7-1.3c-.7-.8-.9-1.9-.7-3 3.5-17 18.5-29.4 35.9-29.9h1.8c5.3.1 10.4 1.3 15.2 3.6 1.7.8 3.7.1 4.5-1.6.8-1.8.1-3.8-1.6-4.6zm-18.2-4.3h-1.6c-8.7-.4-15.6-7.6-15.6-16.4 0-9 7.3-16.4 16.4-16.4s16.4 7.3 16.4 16.4c0 8.8-6.9 16-15.6 16.4zm39.4 28.2h-9.4v-9.4a3.4 3.4 0 1 0-6.8 0v9.4h-9.4a3.4 3.4 0 1 0 0 6.8h9.4v9.4a3.4 3.4 0 1 0 6.8 0v-9.4h9.4a3.4 3.4 0 1 0 0-6.8z" fill="#fff"/></svg>