<svg xmlns="http://www.w3.org/2000/svg" viewBox="-1 -33 95 189" xmlns:v="https://vecta.io/nano"><path d="M39.9 56.1H11.2c-2 0-3.5-1.6-3.5-3.5v-78.1c0-2 1.6-3.5 3.5-3.5h62.6c2 0 3.5 1.6 3.5 3.5V15c0 2-1.6 3.5-3.5 3.5-2 0-3.5-1.6-3.5-3.5v-37H14.8v71h25.1c2 0 3.5 1.6 3.5 3.5.1 2-1.5 3.6-3.5 3.6zM64 53.9c-.9 0-1.8-.4-2.5-1L49.7 41.1a3.5 3.5 0 0 1 0-5 3.5 3.5 0 0 1 5 0l9.2 9.2 18.4-20.6c1.3-1.5 3.5-1.6 5-.3s1.6 3.5.3 5L66.7 52.7c-.6.7-1.6 1.2-2.5 1.2H64zM59-2.4H27.3c-2 0-3.5-1.6-3.5-3.5s1.6-3.5 3.5-3.5H59c2 0 3.5 1.6 3.5 3.5S60.9-2.4 59-2.4zm-1.2 19.1H27.3c-2 0-3.5-1.6-3.5-3.5 0-2 1.6-3.5 3.5-3.5h30.5c2 0 3.5 1.6 3.5 3.5s-1.5 3.5-3.5 3.5zM37.6 34.9H26.4c-2 0-3.5-1.6-3.5-3.5 0-2 1.6-3.5 3.5-3.5h11.1c2 0 3.5 1.6 3.5 3.5.1 1.9-1.5 3.5-3.4 3.5z" fill="#0d7be5"/><path d="M39.9 151.3H11.2c-2 0-3.5-1.6-3.5-3.5V69.7c0-2 1.6-3.5 3.5-3.5h62.6c2 0 3.5 1.6 3.5 3.5v40.5c0 2-1.6 3.5-3.5 3.5-2 0-3.5-1.6-3.5-3.5V73.3H14.8v71h25.1c2 0 3.5 1.6 3.5 3.5.1 1.9-1.5 3.5-3.5 3.5zm24.1-2.2c-.9 0-1.8-.4-2.5-1l-11.8-11.8a3.536 3.536 0 1 1 5-5l9.2 9.2 18.4-20.6c1.3-1.5 3.5-1.6 5-.3s1.6 3.5.3 5L66.7 148c-.6.7-1.6 1.2-2.5 1.2-.1-.1-.1-.1-.2-.1zm-5-56.3H27.3c-2 0-3.5-1.6-3.5-3.5s1.6-3.5 3.5-3.5H59c2 0 3.5 1.6 3.5 3.5s-1.6 3.5-3.5 3.5zm-1.2 19H27.3c-2 0-3.5-1.6-3.5-3.5 0-2 1.6-3.5 3.5-3.5h30.5c2 0 3.5 1.6 3.5 3.5s-1.5 3.5-3.5 3.5zM37.6 130H26.4c-2 0-3.5-1.6-3.5-3.5s1.6-3.5 3.5-3.5h11.1c2 0 3.5 1.6 3.5 3.5s-1.5 3.5-3.4 3.5z" fill="#fff"/></svg>